<?xml version="1.0" encoding="utf-8"?><svg width="24" height="24" viewBox="0 0 24 24" xmlns="http://www.w3.org/2000/svg"><title>63D003F8-3D7D-4BAF-95CA-C3CBA48563D8</title><path d="M12.3 12.91c.15-.07.35-.12.58-.17.19.52.36 1.07.51 1.63.23.88.39 1.74.49 2.59-.59.22-1.22.35-1.88.35-1.23 0-2.35-.42-3.25-1.12.7-1.4 1.96-2.56 3.55-3.28zm-.12-1.86c.13.26.25.53.36.81-.18.04-.34.09-.47.14-1.83.77-3.27 2.01-4.05 3.5A5.292 5.292 0 0 1 6.69 12l.01-.25c.3.01.61.02.92.01 1.67-.02 3.23-.28 4.56-.71zm-4.5-.33c-.28 0-.55-.01-.82-.03A5.327 5.327 0 0 1 9.6 7.27c.77.76 1.49 1.74 2.11 2.87-1.19.37-2.57.58-4.03.58zm5.1-.96c-.62-1.14-1.33-2.12-2.09-2.9.42-.1.86-.17 1.31-.17 1.29 0 2.47.46 3.39 1.23-.58.73-1.48 1.36-2.61 1.84zm.89 1.93c-.14-.35-.28-.7-.44-1.03 1.27-.55 2.25-1.27 2.81-2.09a5.27 5.27 0 0 1 1.25 3.08c-1.15-.06-2.52-.06-3.62.04zm1.2 4.77c-.1-.85-.26-1.73-.5-2.62-.11-.43-.24-.84-.38-1.25 1.04-.09 2.29-.08 3.28 0a5.297 5.297 0 0 1-2.4 3.87zM12 5.63c-3.52 0-6.37 2.85-6.37 6.37s2.85 6.37 6.37 6.37 6.37-2.85 6.37-6.37S15.52 5.63 12 5.63zM12 24C5.37 24 0 18.63 0 12S5.37 0 12 0s12 5.37 12 12-5.37 12-12 12z" fill="#CBCBCB" fill-rule="evenodd"/></svg>