<?xml version="1.0" encoding="utf-8"?><svg width="24" height="24" viewBox="0 0 24 24" xmlns="http://www.w3.org/2000/svg"><title>606E419F-EAC1-44BE-BCDD-BAA58254B1C8</title><path d="M16.48 9.9l.01.27c0 2.79-2.13 6.01-6.01 6.01-1.19 0-2.3-.35-3.24-.95.17.02.34.03.51.03.99 0 1.9-.33 2.62-.9-.93-.02-1.7-.63-1.97-1.47.13.03.26.04.39.04.2 0 .38-.03.56-.07-.97-.2-1.69-1.05-1.69-2.07v-.03c.28.16.61.25.95.26a2.12 2.12 0 0 1-.94-1.75c0-.39.11-.75.29-1.07a5.998 5.998 0 0 0 4.35 2.21 2.52 2.52 0 0 1-.05-.48c0-1.17.94-2.11 2.11-2.11.61 0 1.15.25 1.54.66.48-.09.93-.27 1.34-.51-.16.5-.49.91-.93 1.17.43-.05.84-.16 1.21-.33-.28.42-.64.79-1.05 1.09zM12 0C5.37 0 0 5.37 0 12s5.37 12 12 12 12-5.37 12-12S18.63 0 12 0z" fill="#CBCBCB" fill-rule="evenodd"/></svg>