<?xml version="1.0" encoding="UTF-8"?>
<svg width="24px" height="24px" viewBox="0 0 24 24" version="1.1" xmlns="http://www.w3.org/2000/svg" xmlns:xlink="http://www.w3.org/1999/xlink">
    <!-- Generator: sketchtool 41 (35326) - http://www.bohemiancoding.com/sketch -->
    <title>63D003F8-3D7D-4BAF-95CA-C3CBA48563D8</title>
    <desc>Created with sketchtool.</desc>
    <defs></defs>
    <g id="Symbols" stroke="none" stroke-width="1" fill="none" fill-rule="evenodd">
        <g id="Mdule/Footer" transform="translate(-744.000000, -72.000000)" fill="#CBCBCB">
            <g id="Dribbble-Icon">
                <path d="M756.3,84.91 C756.45,84.84 756.65,84.79 756.88,84.74 C757.07,85.26 757.24,85.81 757.39,86.37 C757.62,87.25 757.78,88.11 757.88,88.96 C757.29,89.18 756.66,89.31 756,89.31 C754.77,89.31 753.65,88.89 752.75,88.19 C753.45,86.79 754.71,85.63 756.3,84.91 L756.3,84.91 Z M756.18,83.05 C756.31,83.31 756.43,83.58 756.54,83.86 C756.36,83.9 756.2,83.95 756.07,84 C754.24,84.77 752.8,86.01 752.02,87.5 C751.2,86.57 750.69,85.34 750.69,84 L750.7,83.75 C751,83.76 751.31,83.77 751.62,83.76 C753.29,83.74 754.85,83.48 756.18,83.05 L756.18,83.05 Z M751.68,82.72 C751.4,82.72 751.13,82.71 750.86,82.69 C751.24,81.2 752.25,79.96 753.6,79.27 C754.37,80.03 755.09,81.01 755.71,82.14 C754.52,82.51 753.14,82.72 751.68,82.72 L751.68,82.72 Z M756.78,81.76 C756.16,80.62 755.45,79.64 754.69,78.86 C755.11,78.76 755.55,78.69 756,78.69 C757.29,78.69 758.47,79.15 759.39,79.92 C758.81,80.65 757.91,81.28 756.78,81.76 L756.78,81.76 Z M757.67,83.69 C757.53,83.34 757.39,82.99 757.23,82.66 C758.5,82.11 759.48,81.39 760.04,80.57 C760.76,81.41 761.21,82.48 761.29,83.65 C760.14,83.59 758.77,83.59 757.67,83.69 L757.67,83.69 Z M758.87,88.46 C758.77,87.61 758.61,86.73 758.37,85.84 C758.26,85.41 758.13,85 757.99,84.59 C759.03,84.5 760.28,84.51 761.27,84.59 C761.09,86.21 760.18,87.62 758.87,88.46 L758.87,88.46 Z M756,77.63 C752.48,77.63 749.63,80.48 749.63,84 C749.63,87.52 752.48,90.37 756,90.37 C759.52,90.37 762.37,87.52 762.37,84 C762.37,80.48 759.52,77.63 756,77.63 L756,77.63 Z M756,96 C749.37,96 744,90.63 744,84 C744,77.37 749.37,72 756,72 C762.63,72 768,77.37 768,84 C768,90.63 762.63,96 756,96 L756,96 Z"></path>
            </g>
        </g>
    </g>
</svg>