<?xml version="1.0" encoding="UTF-8"?>
<svg width="24px" height="24px" viewBox="0 0 24 24" version="1.1" xmlns="http://www.w3.org/2000/svg" xmlns:xlink="http://www.w3.org/1999/xlink">
    <!-- Generator: sketchtool 41 (35326) - http://www.bohemiancoding.com/sketch -->
    <title>720384C2-A50D-47F8-968F-016535A2519D</title>
    <desc>Created with sketchtool.</desc>
    <defs></defs>
    <g id="Symbols" stroke="none" stroke-width="1" fill="none" fill-rule="evenodd">
        <g id="Mdule/Footer" transform="translate(-676.000000, -72.000000)" fill="#CBCBCB">
            <g id="Facebook-Icon">
                <path d="M690.02,84 L688.72,84 L688.72,88.69 L686.78,88.69 L686.78,84 L685.81,84 L685.81,82.38 L686.78,82.38 L686.78,81.41 C686.78,80.1 687.33,79.31 688.88,79.31 L690.18,79.31 L690.18,80.93 L689.37,80.93 C688.76,80.93 688.72,81.15 688.72,81.57 L688.72,82.38 L690.19,82.38 L690.02,84 L690.02,84 Z M688,72 C681.37,72 676,77.37 676,84 C676,90.63 681.37,96 688,96 C694.63,96 700,90.63 700,84 C700,77.37 694.63,72 688,72 L688,72 Z"></path>
            </g>
        </g>
    </g>
</svg>