<?xml version="1.0" encoding="utf-8"?>
<!-- Generator: Adobe Illustrator 21.0.0, SVG Export Plug-In . SVG Version: 6.00 Build 0)  -->
<svg version="1.1" id="Layer_1" xmlns="http://www.w3.org/2000/svg" xmlns:xlink="http://www.w3.org/1999/xlink" x="0px" y="0px"
	 width="530.4px" height="100px" viewBox="0 0 530.4 100" enable-background="new 0 0 530.4 100" xml:space="preserve">
<g>
	<path fill="#333333" d="M106.8,24H123c7.4,0,12.7,1,16,3.1c3.3,2.1,5,5.4,5,10c0,3.1-0.7,5.7-2.2,7.6c-1.5,2-3.4,3.2-5.8,3.6v0.4
		c3.3,0.7,5.7,2.1,7.1,4.1c1.5,2,2.2,4.7,2.2,8c0,4.7-1.7,8.4-5.1,11.1c-3.4,2.7-8.1,4-14,4h-19.4V24z M117.8,44.6h6.4
		c3,0,5.1-0.5,6.5-1.4c1.3-0.9,2-2.5,2-4.6c0-2-0.7-3.4-2.2-4.3c-1.5-0.9-3.8-1.3-6.9-1.3h-5.8V44.6z M117.8,53.4v13.5h7.2
		c3,0,5.3-0.6,6.7-1.7c1.4-1.2,2.2-2.9,2.2-5.3c0-4.3-3.1-6.5-9.2-6.5H117.8z"/>
	<path fill="#333333" d="M192.1,76l-3.8-12.4h-18.9L165.6,76h-11.9l18.3-52.2h13.5L204,76H192.1z M185.7,54.4
		c-3.5-11.2-5.4-17.5-5.9-19c-0.4-1.5-0.8-2.6-0.9-3.5c-0.8,3-3,10.5-6.7,22.5H185.7z"/>
	<path fill="#333333" d="M247.2,61.6c0,4.7-1.7,8.4-5.1,11.1c-3.4,2.7-8.1,4.1-14.1,4.1c-5.5,0-10.5-1-14.7-3.1V63.3
		c3.5,1.6,6.5,2.7,8.9,3.3c2.4,0.6,4.7,1,6.7,1c2.4,0,4.3-0.5,5.6-1.4c1.3-0.9,1.9-2.3,1.9-4.1c0-1-0.3-1.9-0.9-2.7
		s-1.4-1.6-2.5-2.3c-1.1-0.7-3.3-1.9-6.7-3.5c-3.2-1.5-5.6-2.9-7.1-4.3c-1.6-1.4-2.9-3-3.8-4.8c-0.9-1.8-1.4-4-1.4-6.4
		c0-4.6,1.6-8.2,4.7-10.8c3.1-2.6,7.4-3.9,12.9-3.9c2.7,0,5.3,0.3,7.7,1c2.5,0.6,5,1.5,7.7,2.7l-3.6,8.6c-2.8-1.1-5.1-1.9-6.9-2.4
		s-3.6-0.7-5.3-0.7c-2.1,0-3.7,0.5-4.8,1.5c-1.1,1-1.7,2.2-1.7,3.8c0,1,0.2,1.8,0.7,2.5c0.4,0.7,1.2,1.4,2.2,2.1
		c1,0.7,3.3,1.9,7,3.6c4.9,2.3,8.2,4.7,10,7C246.3,55.3,247.2,58.2,247.2,61.6z"/>
	<path fill="#333333" d="M292.6,76h-29.9V24h29.9v9h-18.9v11.4h17.6v9h-17.6v13.4h18.9V76z"/>
	<path fill="#333333" d="M331.5,76L319,35.2h-0.3c0.4,8.3,0.7,13.8,0.7,16.6V76h-9.8V24h15l12.3,39.7h0.2l13-39.7h15v52h-10.3V51.4
		c0-1.2,0-2.5,0.1-4c0-1.5,0.2-5.5,0.5-12.1H355L341.6,76H331.5z"/>
	<path fill="#333333" d="M414.1,76h-29.9V24h29.9v9h-18.9v11.4h17.6v9h-17.6v13.4h18.9V76z"/>
	<path fill="#333333" d="M477.1,76h-14l-22.6-39.3h-0.3c0.5,6.9,0.7,11.9,0.7,14.9V76H431V24h13.9L467.5,63h0.2
		c-0.4-6.8-0.5-11.5-0.5-14.3V24h9.9V76z"/>
	<path fill="#333333" d="M516.3,76h-11V33.2h-14.1V24h39.2v9.2h-14.1V76z"/>
</g>
<path fill-rule="evenodd" clip-rule="evenodd" fill="#FF5E1B" d="M82.2,41.3L41.1,0L0,41.3l0.1,16.6l0,0.8L41.3,100l41.1-41.3
	l-0.1-15.4L82.2,41.3z M4.9,43.3L41.1,6.9l35.2,35.4L41.2,77.7l-0.1-0.1L21.5,57.7l4.2-4.2L41.1,69l26.7-26.7l0,0L41.4,15.9
	l-0.3-0.3h0L4.9,51.8L4.9,43.3z M41.3,93.1L6,57.7l35.2-35.3l0.1,0.1l19.6,19.9l-4.2,4.2L41.2,31L14.6,57.7l0,0l26.3,26.4l0.3,0.3
	l36.1-36.3l0.1,8.6L41.3,93.1z"/>
</svg>
