<?xml version="1.0" encoding="UTF-8"?>
<svg width="24px" height="24px" viewBox="0 0 24 24" version="1.1" xmlns="http://www.w3.org/2000/svg" xmlns:xlink="http://www.w3.org/1999/xlink">
    <!-- Generator: sketchtool 41 (35326) - http://www.bohemiancoding.com/sketch -->
    <title>606E419F-EAC1-44BE-BCDD-BAA58254B1C8</title>
    <desc>Created with sketchtool.</desc>
    <defs></defs>
    <g id="Symbols" stroke="none" stroke-width="1" fill="none" fill-rule="evenodd">
        <g id="Mdule/Footer" transform="translate(-710.000000, -72.000000)" fill="#CBCBCB">
            <g id="Twitter-Icon-">
                <path d="M726.48,81.9 L726.49,82.17 C726.49,84.96 724.36,88.18 720.48,88.18 C719.29,88.18 718.18,87.83 717.24,87.23 C717.41,87.25 717.58,87.26 717.75,87.26 C718.74,87.26 719.65,86.93 720.37,86.36 C719.44,86.34 718.67,85.73 718.4,84.89 C718.53,84.92 718.66,84.93 718.79,84.93 C718.99,84.93 719.17,84.9 719.35,84.86 C718.38,84.66 717.66,83.81 717.66,82.79 L717.66,82.76 C717.94,82.92 718.27,83.01 718.61,83.02 C718.05,82.64 717.67,82 717.67,81.27 C717.67,80.88 717.78,80.52 717.96,80.2 C719,81.48 720.56,82.32 722.31,82.41 C722.28,82.26 722.26,82.09 722.26,81.93 C722.26,80.76 723.2,79.82 724.37,79.82 C724.98,79.82 725.52,80.07 725.91,80.48 C726.39,80.39 726.84,80.21 727.25,79.97 C727.09,80.47 726.76,80.88 726.32,81.14 C726.75,81.09 727.16,80.98 727.53,80.81 C727.25,81.23 726.89,81.6 726.48,81.9 L726.48,81.9 Z M722,72 C715.37,72 710,77.37 710,84 C710,90.63 715.37,96 722,96 C728.63,96 734,90.63 734,84 C734,77.37 728.63,72 722,72 L722,72 Z"></path>
            </g>
        </g>
    </g>
</svg>