<?xml version="1.0" encoding="utf-8"?><svg xmlns="http://www.w3.org/2000/svg" xmlns:xlink="http://www.w3.org/1999/xlink"><symbol viewBox="0 0 24 24" id="dribbble"><title>63D003F8-3D7D-4BAF-95CA-C3CBA48563D8</title><path d="M12.3 12.91c.15-.07.35-.12.58-.17.19.52.36 1.07.51 1.63.23.88.39 1.74.49 2.59-.59.22-1.22.35-1.88.35-1.23 0-2.35-.42-3.25-1.12.7-1.4 1.96-2.56 3.55-3.28zm-.12-1.86c.13.26.25.53.36.81-.18.04-.34.09-.47.14-1.83.77-3.27 2.01-4.05 3.5A5.292 5.292 0 0 1 6.69 12l.01-.25c.3.01.61.02.92.01 1.67-.02 3.23-.28 4.56-.71zm-4.5-.33c-.28 0-.55-.01-.82-.03A5.327 5.327 0 0 1 9.6 7.27c.77.76 1.49 1.74 2.11 2.87-1.19.37-2.57.58-4.03.58zm5.1-.96c-.62-1.14-1.33-2.12-2.09-2.9.42-.1.86-.17 1.31-.17 1.29 0 2.47.46 3.39 1.23-.58.73-1.48 1.36-2.61 1.84zm.89 1.93c-.14-.35-.28-.7-.44-1.03 1.27-.55 2.25-1.27 2.81-2.09a5.27 5.27 0 0 1 1.25 3.08c-1.15-.06-2.52-.06-3.62.04zm1.2 4.77c-.1-.85-.26-1.73-.5-2.62-.11-.43-.24-.84-.38-1.25 1.04-.09 2.29-.08 3.28 0a5.297 5.297 0 0 1-2.4 3.87zM12 5.63c-3.52 0-6.37 2.85-6.37 6.37s2.85 6.37 6.37 6.37 6.37-2.85 6.37-6.37S15.52 5.63 12 5.63zM12 24C5.37 24 0 18.63 0 12S5.37 0 12 0s12 5.37 12 12-5.37 12-12 12z" fill="#CBCBCB" fill-rule="evenodd"/></symbol><symbol viewBox="0 0 24 24" id="facebook"><title>720384C2-A50D-47F8-968F-016535A2519D</title><path d="M14.02 12h-1.3v4.69h-1.94V12h-.97v-1.62h.97v-.97c0-1.31.55-2.1 2.1-2.1h1.3v1.62h-.81c-.61 0-.65.22-.65.64v.81h1.47L14.02 12zM12 0C5.37 0 0 5.37 0 12s5.37 12 12 12 12-5.37 12-12S18.63 0 12 0z" fill="#CBCBCB" fill-rule="evenodd"/></symbol><symbol viewBox="0 0 530.4 100" id="logo"><path d="M106.8 24H123c7.4 0 12.7 1 16 3.1 3.3 2.1 5 5.4 5 10 0 3.1-.7 5.7-2.2 7.6-1.5 2-3.4 3.2-5.8 3.6v.4c3.3.7 5.7 2.1 7.1 4.1 1.5 2 2.2 4.7 2.2 8 0 4.7-1.7 8.4-5.1 11.1-3.4 2.7-8.1 4-14 4h-19.4V24zm11 20.6h6.4c3 0 5.1-.5 6.5-1.4 1.3-.9 2-2.5 2-4.6 0-2-.7-3.4-2.2-4.3-1.5-.9-3.8-1.3-6.9-1.3h-5.8v11.6zm0 8.8v13.5h7.2c3 0 5.3-.6 6.7-1.7 1.4-1.2 2.2-2.9 2.2-5.3 0-4.3-3.1-6.5-9.2-6.5h-6.9zM192.1 76l-3.8-12.4h-18.9L165.6 76h-11.9L172 23.8h13.5L204 76h-11.9zm-6.4-21.6c-3.5-11.2-5.4-17.5-5.9-19-.4-1.5-.8-2.6-.9-3.5-.8 3-3 10.5-6.7 22.5h13.5zm61.5 7.2c0 4.7-1.7 8.4-5.1 11.1-3.4 2.7-8.1 4.1-14.1 4.1-5.5 0-10.5-1-14.7-3.1V63.3c3.5 1.6 6.5 2.7 8.9 3.3 2.4.6 4.7 1 6.7 1 2.4 0 4.3-.5 5.6-1.4 1.3-.9 1.9-2.3 1.9-4.1 0-1-.3-1.9-.9-2.7s-1.4-1.6-2.5-2.3c-1.1-.7-3.3-1.9-6.7-3.5-3.2-1.5-5.6-2.9-7.1-4.3-1.6-1.4-2.9-3-3.8-4.8-.9-1.8-1.4-4-1.4-6.4 0-4.6 1.6-8.2 4.7-10.8 3.1-2.6 7.4-3.9 12.9-3.9 2.7 0 5.3.3 7.7 1 2.5.6 5 1.5 7.7 2.7l-3.6 8.6c-2.8-1.1-5.1-1.9-6.9-2.4s-3.6-.7-5.3-.7c-2.1 0-3.7.5-4.8 1.5-1.1 1-1.7 2.2-1.7 3.8 0 1 .2 1.8.7 2.5.4.7 1.2 1.4 2.2 2.1 1 .7 3.3 1.9 7 3.6 4.9 2.3 8.2 4.7 10 7 1.7 2.2 2.6 5.1 2.6 8.5zM292.6 76h-29.9V24h29.9v9h-18.9v11.4h17.6v9h-17.6v13.4h18.9V76zm38.9 0L319 35.2h-.3c.4 8.3.7 13.8.7 16.6V76h-9.8V24h15l12.3 39.7h.2l13-39.7h15v52h-10.3V51.4c0-1.2 0-2.5.1-4 0-1.5.2-5.5.5-12.1h-.4L341.6 76h-10.1zm82.6 0h-29.9V24h29.9v9h-18.9v11.4h17.6v9h-17.6v13.4h18.9V76zm63 0h-14l-22.6-39.3h-.3c.5 6.9.7 11.9.7 14.9V76H431V24h13.9l22.6 39h.2c-.4-6.8-.5-11.5-.5-14.3V24h9.9v52zm39.2 0h-11V33.2h-14.1V24h39.2v9.2h-14.1V76z" fill="#333"/><path fill-rule="evenodd" clip-rule="evenodd" fill="#FF5E1B" d="M82.2 41.3L41.1 0 0 41.3l.1 16.6v.8L41.3 100l41.1-41.3-.1-15.4-.1-2zm-77.3 2L41.1 6.9l35.2 35.4-35.1 35.4-.1-.1-19.6-19.9 4.2-4.2L41.1 69l26.7-26.7-26.4-26.4-.3-.3L4.9 51.8v-8.5zm36.4 49.8L6 57.7l35.2-35.3.1.1 19.6 19.9-4.2 4.2L41.2 31 14.6 57.7l26.3 26.4.3.3 36.1-36.3.1 8.6-36.1 36.4z"/></symbol><symbol viewBox="0 0 21 18" id="menu-burger"><title>513C0FD7-4D6C-4450-BA9F-1E3EE1721F43</title><path d="M21 0H0v2h21V0zm0 16H0v2h21v-2zm0-8H0v2h21V8z" fill="#FFF" fill-rule="evenodd"/></symbol><symbol viewBox="0 0 24 24" id="twitter"><title>606E419F-EAC1-44BE-BCDD-BAA58254B1C8</title><path d="M16.48 9.9l.01.27c0 2.79-2.13 6.01-6.01 6.01-1.19 0-2.3-.35-3.24-.95.17.02.34.03.51.03.99 0 1.9-.33 2.62-.9-.93-.02-1.7-.63-1.97-1.47.13.03.26.04.39.04.2 0 .38-.03.56-.07-.97-.2-1.69-1.05-1.69-2.07v-.03c.28.16.61.25.95.26a2.12 2.12 0 0 1-.94-1.75c0-.39.11-.75.29-1.07a5.998 5.998 0 0 0 4.35 2.21 2.52 2.52 0 0 1-.05-.48c0-1.17.94-2.11 2.11-2.11.61 0 1.15.25 1.54.66.48-.09.93-.27 1.34-.51-.16.5-.49.91-.93 1.17.43-.05.84-.16 1.21-.33-.28.42-.64.79-1.05 1.09zM12 0C5.37 0 0 5.37 0 12s5.37 12 12 12 12-5.37 12-12S18.63 0 12 0z" fill="#CBCBCB" fill-rule="evenodd"/></symbol></svg>